<?xml version="1.0" standalone="no"?>
<!DOCTYPE svg PUBLIC "-//W3C//DTD SVG 20010904//EN"
 "http://www.w3.org/TR/2001/REC-SVG-20010904/DTD/svg10.dtd">
<svg version="1.0" xmlns="http://www.w3.org/2000/svg"
 width="540.000000pt" height="540.000000pt" viewBox="0 0 540.000000 540.000000"
 preserveAspectRatio="xMidYMid meet">
<metadata>
Created by potrace 1.14, written by Peter Selinger 2001-2017
</metadata>
<g transform="translate(0.000000,540.000000) scale(0.100000,-0.100000)"
fill="#000000" stroke="none">
<path d="M2665 4010 c3 -5 8 -10 11 -10 2 0 4 5 4 10 0 6 -5 10 -11 10 -5 0
-7 -4 -4 -10z"/>
<path d="M2699 3997 c10 -13 2 -20 -51 -47 -70 -35 -108 -73 -108 -109 0 -13
16 -57 35 -97 38 -78 42 -99 23 -107 -7 -3 -2 -6 12 -7 14 -1 41 -4 60 -6 34
-4 34 -4 12 12 -27 18 -29 59 -5 94 9 14 39 50 68 80 59 63 84 114 68 139 -13
20 -59 46 -97 55 -25 6 -28 5 -17 -7z"/>
<path d="M2230 3901 c0 -6 24 -35 53 -67 28 -31 60 -69 70 -85 11 -16 21 -29
24 -29 2 0 1 4 -2 10 -3 5 -8 20 -10 32 -3 12 -10 25 -17 30 -7 4 -8 8 -3 8 6
0 3 6 -5 13 -8 7 -21 25 -28 40 -8 19 -18 27 -27 23 -8 -3 -15 -2 -15 2 0 4
-9 13 -20 20 -11 7 -20 8 -20 3z"/>
<path d="M3180 3596 c0 -2 9 -6 20 -9 11 -3 18 -1 14 4 -5 9 -34 13 -34 5z"/>
<path d="M3280 3579 c25 -5 55 -12 68 -15 12 -2 22 -10 22 -18 0 -7 6 -19 14
-26 8 -6 12 -18 9 -26 -3 -8 0 -14 5 -14 6 0 12 6 15 13 2 6 3 4 2 -5 -2 -9 3
-25 10 -35 7 -10 15 -34 18 -53 11 -67 20 -95 37 -115 10 -11 20 -36 24 -55 3
-19 9 -52 12 -72 4 -21 10 -38 14 -38 4 0 11 -8 15 -17 8 -19 43 -175 52 -230
3 -18 9 -33 13 -33 7 0 19 -41 35 -127 4 -18 12 -33 19 -33 23 0 39 -213 33
-445 -5 -212 -10 -255 -31 -255 -6 0 -20 -16 -30 -35 -11 -19 -23 -35 -28 -35
-4 0 -8 -7 -8 -15 0 -8 -7 -15 -15 -15 -8 0 -15 -4 -15 -9 0 -11 -93 -79 -126
-91 -13 -5 -24 -14 -24 -20 0 -6 -17 -18 -37 -26 -21 -9 -78 -35 -128 -59 -49
-24 -108 -49 -130 -56 -22 -7 -53 -18 -70 -25 -61 -25 -159 -54 -185 -54 -15
0 -47 -7 -71 -16 -24 -9 -89 -24 -144 -34 -55 -11 -143 -28 -195 -38 -155 -32
-419 -53 -577 -47 -265 12 -295 15 -328 32 -11 6 -51 16 -90 23 -69 12 -225
66 -225 79 0 3 -12 7 -27 8 -15 0 -34 10 -43 20 -8 11 -21 18 -27 16 -7 -3
-22 7 -34 21 -12 14 -26 23 -32 19 -5 -3 -12 -2 -16 3 -3 5 -22 22 -41 39 -19
16 -8 2 25 -31 33 -33 80 -74 105 -91 25 -17 61 -46 82 -65 20 -18 46 -39 57
-46 34 -20 111 -43 121 -37 6 3 10 1 10 -5 0 -6 3 -9 8 -6 4 2 30 0 57 -6 28
-5 64 -9 82 -9 17 1 64 -5 105 -12 40 -8 102 -15 138 -16 36 -1 92 -6 125 -12
76 -13 101 -15 315 -30 268 -19 1020 -17 1020 3 0 4 7 5 15 1 21 -7 11 -16
-23 -19 -29 -3 -64 -10 -90 -18 -26 -9 -73 -14 -252 -31 -276 -26 -798 -27
-985 -2 -22 3 -74 8 -115 11 -143 10 -13 -12 180 -31 226 -21 682 -24 915 -5
499 40 807 127 854 240 7 17 47 57 94 93 45 35 102 82 126 104 60 54 155 185
182 249 21 52 23 53 118 96 190 87 303 194 393 375 34 68 83 203 98 275 17 80
62 241 91 325 71 207 182 325 404 430 105 49 113 69 17 40 -161 -50 -267 -126
-361 -259 -21 -31 -40 -54 -42 -53 -2 1 -3 0 -2 -1 1 -4 -36 -99 -58 -147 -5
-11 -11 -29 -14 -40 -2 -11 -18 -60 -35 -110 -16 -49 -30 -97 -30 -105 0 -14
-23 -87 -37 -120 -4 -8 -8 -19 -8 -25 -8 -51 -117 -255 -137 -255 -4 0 -8 -6
-8 -13 0 -16 -134 -147 -150 -147 -5 0 -10 -4 -10 -10 0 -5 -4 -10 -8 -10 -5
0 -45 -19 -89 -43 l-80 -44 -6 111 c-3 61 -11 127 -16 146 -5 19 -13 53 -16
75 -3 22 -14 73 -24 113 l-19 72 28 15 c16 8 38 15 49 15 11 0 23 5 26 10 4 6
9 9 13 6 4 -2 18 8 32 22 l25 25 -26 -16 c-14 -8 -55 -25 -89 -36 -67 -22 -79
-19 -80 21 0 9 -4 19 -9 22 -5 3 -12 18 -15 33 -29 118 -322 748 -367 790 -50
45 -156 75 -352 98 -137 16 -164 17 -97 4z"/>
<path d="M1013 3253 c32 -2 81 -2 110 0 29 2 3 3 -58 3 -60 0 -84 -1 -52 -3z"/>
<path d="M693 3243 c15 -2 37 -2 50 0 12 2 0 4 -28 4 -27 0 -38 -2 -22 -4z"/>
<path d="M532 3118 c-190 -18 -304 -60 -350 -128 -22 -32 -24 -43 -19 -120 12
-207 187 -481 406 -634 100 -70 208 -129 221 -121 18 11 12 75 -7 82 -37 13
-180 123 -234 179 -148 157 -245 362 -237 503 3 62 6 70 38 99 19 17 55 38 80
47 66 24 280 44 482 46 l177 1 10 30 10 29 -247 -2 c-136 -2 -285 -7 -330 -11z"/>
<path d="M4563 3105 c-3 -9 -3 -18 -1 -21 3 -3 8 4 11 16 6 23 -1 27 -10 5z"/>
<path d="M4535 3030 c-3 -5 -1 -10 4 -10 6 0 11 5 11 10 0 6 -2 10 -4 10 -3 0
-8 -4 -11 -10z"/>
<path d="M4514 2958 c-5 -13 -8 -26 -9 -30 0 -3 -3 -10 -7 -14 -5 -4 -8 -12
-8 -18 0 -17 27 27 34 57 8 33 0 36 -10 5z"/>
<path d="M4457 2830 c-15 -28 -22 -48 -17 -45 13 8 53 86 47 91 -2 2 -16 -18
-30 -46z"/>
<path d="M4382 2723 c-23 -25 -40 -48 -37 -51 3 -3 6 -3 8 -1 1 2 20 23 41 46
22 24 38 45 35 47 -2 2 -23 -16 -47 -41z"/>
<path d="M610 2066 c0 -3 9 -10 20 -16 11 -6 20 -8 20 -6 0 3 -9 10 -20 16
-11 6 -20 8 -20 6z"/>
<path d="M750 1985 c25 -13 50 -24 55 -24 6 0 -10 11 -35 24 -25 13 -49 24
-55 24 -5 0 10 -11 35 -24z"/>
<path d="M1485 1300 c27 -12 43 -12 25 0 -8 5 -22 9 -30 9 -10 0 -8 -3 5 -9z"/>
<path d="M1558 1283 c7 -3 16 -2 19 1 4 3 -2 6 -13 5 -11 0 -14 -3 -6 -6z"/>
<path d="M1630 1265 c29 -10 47 -12 54 -5 7 7 3 10 -11 10 -11 0 -36 2 -54 5
-29 4 -27 2 11 -10z"/>
<path d="M1708 1253 c6 -2 18 -2 25 0 6 3 1 5 -13 5 -14 0 -19 -2 -12 -5z"/>
</g>
</svg>
